<?xml version="1.0" encoding="utf-8"?>
<!-- Generator: Adobe Illustrator 16.0.0, SVG Export Plug-In . SVG Version: 6.00 Build 0)  -->
<!DOCTYPE svg PUBLIC "-//W3C//DTD SVG 1.1//EN" "http://www.w3.org/Graphics/SVG/1.1/DTD/svg11.dtd">
<svg version="1.1" id="Capa_1" xmlns="http://www.w3.org/2000/svg" xmlns:xlink="http://www.w3.org/1999/xlink" x="0px" y="0px"
	 width="422.7px" height="68.5px" viewBox="0 0 422.7 68.5" enable-background="new 0 0 422.7 68.5" xml:space="preserve">
<g>
	<path fill="#010101" d="M222.5,2c-18.6,0-30.9,15-30.9,31.7v0.2c0,16.7,12.2,31.5,30.7,31.5c18.6,0,30.9-15,30.9-31.7v-0.2
		C253.2,16.8,241,2,222.5,2z M230.7,53c-1.1,0.3-2.4,0.4-3.9,0.6c-0.7,0.1-1.4,0.2-2.2,0.2c-0.8,0-1.5,0-2.3,0.1
		c-1.5,0-3.1-0.2-4.5-0.3c-1.4-0.2-2.7-0.4-3.9-0.7c-3.7-1.1-3.7-3.2-3.7-3.2s0.4,0,1,0.1c0.7,0.1,1.6,0.2,2.7,0.3
		c1.1,0.2,2.4,0.2,3.8,0.3c1.4,0,2.9,0.2,4.4,0.1c1.5,0,3,0,4.4-0.1c1.4-0.1,2.7-0.1,3.8-0.3c2.2-0.3,3.8-0.5,3.8-0.5
		S234,52.3,230.7,53z M241.5,25c-0.5,2.1-1.5,4-3.1,5.4c-0.3,0.3-0.7,0.5-1.1,0.7c-0.5,0.2-0.7,0.5-0.7,0.9
		c-0.2,1.2-1.9,12.6-2,13.4c-0.1,0.9-0.6,1.5-1.5,1.6c-0.9,0.2-8.2,0.8-10.8,0.8c-2.7,0-10.4-0.7-10.6-0.8c-1-0.2-1.5-0.9-1.6-1.8
		c-0.1-0.7-1.5-10.9-1.8-12.9c-0.1-0.6-0.3-1.1-1-1.4c-1.2-0.5-2-1.5-2.7-2.6c-1.1-1.8-1.8-3.6-1.6-5.8c0.3-3.5,2.7-5.9,6.2-6.3
		c1-0.1,2-0.1,2.9,0c1.2,0.1,2.3-0.3,3.2-1.1c1-0.8,2.1-1.7,3.2-2.4c2.2-1.3,4.5-1.2,6.8-0.3c1.1,0.5,2.2,1,3.2,1.8
		c0.3,0.3,0.7,0.6,0.9,0.9c0.6,0.9,1.4,1.1,2.4,1c1.3,0,2.6-0.1,3.9,0.1C240.3,17.1,242.4,21.1,241.5,25z"/>
</g>
<path fill="#010101" d="M4,3.1h25.8c7.5,0,13.6,2.4,17.3,6c2.9,2.9,4.6,7,4.6,11.4v0.2c0,10.2-7.6,16.1-18,17.5l20.2,26.2h-5.8
	L28.6,39H8.6v25.4H4V3.1z M29.2,34.8c10.2,0,17.9-5.2,17.9-14v-0.2c0-8.2-6.5-13.4-17.6-13.4H8.6v27.6H29.2z"/>
<path fill="#010101" d="M100.9,3.1H61.8v4.2h39.1V3.1z M96.9,31.3H61.8v4.2h35.1V31.3z M61.8,60.2v4.2h39.5v-4.2H61.8z"/>
<rect x="57.2" y="3.1" fill="#010101" width="4.6" height="61.3"/>
<path fill="#010101" d="M102.9,55.9l3-3.4c6.7,6.2,13,9.1,22,9.1c9.2,0,15.5-5.2,15.5-12.2v-0.2c0-6.5-3.4-10.2-17.3-13.1
	c-14.7-3-20.7-8-20.7-17.3v-0.2c0-9.1,8.3-16.1,19.7-16.1c8.9,0,14.8,2.5,21,7.4l-2.9,3.6c-5.8-5-11.6-6.9-18.3-6.9
	c-9,0-15,5.2-15,11.6v0.2c0,6.5,3.3,10.4,17.9,13.4c14.2,2.9,20.1,8,20.1,16.9V49c0,9.9-8.5,16.7-20.3,16.7
	C117.8,65.7,110.3,62.5,102.9,55.9z"/>
<path fill="#010101" d="M170.6,7.3h-21.4V3.1h47.3v4.2h-21.4v57.1h-4.6V7.3z"/>
<path fill="#010101" d="M257.6,3.1h25.8c7.5,0,13.6,2.4,17.3,6c2.9,2.9,4.6,7,4.6,11.4v0.2c0,10.2-7.6,16.1-18,17.5l20.2,26.2h-5.8
	L282.2,39h-20.1v25.4h-4.6V3.1z M282.8,34.8c10.2,0,17.9-5.2,17.9-14v-0.2c0-8.2-6.5-13.4-17.6-13.4h-20.9v27.6H282.8z"/>
<path fill="#010101" d="M311.4,3.1h4.6v61.3h-4.6V3.1z"/>
<path fill="#010101" d="M321.7,38.9V3.1h4.6v35.4c0,14.5,7.8,22.8,20.8,22.8c12.4,0,20.4-7.5,20.4-22.3V3.1h4.6v35.3
	c0,17.6-10.2,27-25.1,27C332.1,65.3,321.7,56,321.7,38.9z"/>
<path fill="#010101" d="M375.2,55.4l3-3.4c6.7,6.2,13,9.1,22,9.1c9.2,0,15.5-5.2,15.5-12.2v-0.2c0-6.5-3.4-10.2-17.3-13.1
	c-14.7-3-20.7-8-20.7-17.3v-0.2c0-9.1,8.3-16.1,19.7-16.1c8.9,0,14.8,2.5,21,7.4l-2.9,3.6c-5.8-5-11.6-6.9-18.3-6.9
	c-9,0-15,5.2-15,11.6V18c0,6.5,3.3,10.4,17.9,13.4c14.2,2.9,20.1,8,20.1,16.9v0.2c0,9.9-8.5,16.7-20.3,16.7
	C390.1,65.2,382.6,62,375.2,55.4z"/>
</svg>
